<?xml version="1.0" encoding="utf-8"?>
<!-- Generator: Adobe Illustrator 21.0.0, SVG Export Plug-In . SVG Version: 6.00 Build 0)  -->
<svg version="1.1" id="Layer_1" xmlns="http://www.w3.org/2000/svg" xmlns:xlink="http://www.w3.org/1999/xlink" x="0px" y="0px"
	 viewBox="0 0 512 512" style="enable-background:new 0 0 512 512;" xml:space="preserve">
<style type="text/css">
	.st0{fill:#00BCFF;}
</style>
<title>helmet_2_style_1</title>
<path class="st0" d="M51.2,441.6c0,35.3,28.7,64,64,64h281.6c35.3,0,64-28.7,64-64v-38.4H51.2V441.6z M115.2,428.8
	c7.1,0,12.8,5.7,12.8,12.8s-5.7,12.8-12.8,12.8s-12.8-5.7-12.8-12.8l0,0C102.4,434.5,108.1,428.8,115.2,428.8
	C115.2,428.8,115.2,428.8,115.2,428.8L115.2,428.8z M512,294.4v51.2c0,17.7-14.3,32-32,32H32c-17.7,0-32-14.3-32-32v-76.8
	c0-17.7,14.3-32,32-32h20.8C65.4,135.8,151.6,57.6,256,57.6c74.5,0,143.1,40.4,179.2,105.6V81c-20-7.1-30.5-29-23.4-49
	s29-30.5,49-23.4s30.5,29,23.4,49c-3.9,10.9-12.5,19.5-23.4,23.4v181.4H480C497.7,262.4,512,276.7,512,294.4z"/>
</svg>
